<?xml version="1.0" encoding="UTF-8" standalone="no"?>
<svg
   xmlns:osb="http://www.openswatchbook.org/uri/2009/osb"
   xmlns:dc="http://purl.org/dc/elements/1.1/"
   xmlns:cc="http://creativecommons.org/ns#"
   xmlns:rdf="http://www.w3.org/1999/02/22-rdf-syntax-ns#"
   xmlns:svg="http://www.w3.org/2000/svg"
   xmlns="http://www.w3.org/2000/svg"
   xmlns:sodipodi="http://sodipodi.sourceforge.net/DTD/sodipodi-0.dtd"
   xmlns:inkscape="http://www.inkscape.org/namespaces/inkscape"
   viewBox="0 0 512 512"
   version="1.1"
   id="svg4"
   sodipodi:docname="ClassExt.svg"
   inkscape:version="0.92.5 (2060ec1f9f, 2020-04-08)">
  <metadata
     id="metadata10">
    <rdf:RDF>
      <cc:Work
         rdf:about="">
        <dc:format>image/svg+xml</dc:format>
        <dc:type
           rdf:resource="http://purl.org/dc/dcmitype/StillImage" />
        <dc:title></dc:title>
      </cc:Work>
    </rdf:RDF>
  </metadata>
  <defs
     id="defs8">
    <linearGradient
       id="linearGradient835"
       osb:paint="gradient">
      <stop
         style="stop-color:#000000;stop-opacity:1;"
         offset="0"
         id="stop831" />
      <stop
         style="stop-color:#000000;stop-opacity:0;"
         offset="1"
         id="stop833" />
    </linearGradient>
  </defs>
  <sodipodi:namedview
     pagecolor="#ffffff"
     bordercolor="#666666"
     borderopacity="1"
     objecttolerance="10"
     gridtolerance="10"
     guidetolerance="10"
     inkscape:pageopacity="0"
     inkscape:pageshadow="2"
     inkscape:window-width="1920"
     inkscape:window-height="1027"
     id="namedview6"
     showgrid="false"
     inkscape:zoom="0.4609375"
     inkscape:cx="-134.50847"
     inkscape:cy="82.440678"
     inkscape:window-x="-8"
     inkscape:window-y="-8"
     inkscape:window-maximized="1"
     inkscape:current-layer="svg4" />
  <path
     id="path2-8"
     style="stroke-width:0.89830512"
     d="m 381.83052,250.30509 v 28.74576 c 0,5.92882 -4.85084,10.77968 -10.77967,10.77968 h -79.05084 v 79.05085 c 0,5.9288 -4.85085,10.77965 -10.77967,10.77965 H 252.4746 c -5.92883,0 -10.77967,-4.85085 -10.77967,-10.77965 v -79.05085 h -79.05085 c -5.92882,0 -10.77967,-4.85086 -10.77967,-10.77968 v -28.74576 c 0,-5.92881 4.85085,-10.77966 10.77967,-10.77966 h 79.05085 v -79.05085 c 0,-5.9288 4.85084,-10.77965 10.77967,-10.77965 h 28.74574 c 5.92882,0 10.77967,4.85085 10.77967,10.77965 v 79.05085 h 79.05084 c 5.92883,0 10.77967,4.85085 10.77967,10.77966 z M 497.941,225.941 286.059,14.059 A 48,48 0 0 0 252.118,0 H 48 C 21.49,0 0,21.49 0,48 v 204.118 a 47.998,47.998 0 0 0 14.059,33.941 l 211.882,211.882 c 18.745,18.745 49.137,18.746 67.882,0 L 497.941,293.823 c 18.745,-18.745 18.745,-49.137 0,-67.882 z M 259.886,463.996 48,252.118 V 48 H 252.118 L 464,259.882 Z M 192,144 c 0,26.51 -21.49,48 -48,48 -26.51,0 -48,-21.49 -48,-48 0,-26.51 21.49,-48 48,-48 26.51,0 48,21.49 48,48 z" />
</svg>
