<?xml version="1.0" encoding="UTF-8" standalone="no"?>
<svg
   xmlns:dc="http://purl.org/dc/elements/1.1/"
   xmlns:cc="http://creativecommons.org/ns#"
   xmlns:rdf="http://www.w3.org/1999/02/22-rdf-syntax-ns#"
   xmlns:svg="http://www.w3.org/2000/svg"
   xmlns="http://www.w3.org/2000/svg"
   xmlns:sodipodi="http://sodipodi.sourceforge.net/DTD/sodipodi-0.dtd"
   xmlns:inkscape="http://www.inkscape.org/namespaces/inkscape"
   inkscape:version="1.0 (4035a4fb49, 2020-05-01)"
   sodipodi:docname="database_with_tag.svg"
   id="svg4"
   version="1.1"
   viewBox="0 0 448 512"
   role="img"
   class="svg-inline--fa fa-database fa-w-14"
   data-icon="database"
   data-prefix="far"
   aria-hidden="true">
  <metadata
     id="metadata10">
    <rdf:RDF>
      <cc:Work
         rdf:about="">
        <dc:format>image/svg+xml</dc:format>
        <dc:type
           rdf:resource="http://purl.org/dc/dcmitype/StillImage" />
        <dc:title />
      </cc:Work>
    </rdf:RDF>
  </metadata>
  <defs
     id="defs8">
    <clipPath
       id="clipPath1030"
       clipPathUnits="userSpaceOnUse">
      <rect
         y="0.024990082"
         x="0.025001526"
         height="511.95001"
         width="447.95001"
         id="rect1032"
         style="fill:#3bffff;fill-opacity:1;fill-rule:evenodd;stroke:#4a03f4;stroke-width:0.1;stroke-linecap:square;stroke-linejoin:round;stroke-miterlimit:4;stroke-dasharray:none;stroke-opacity:1;paint-order:markers fill stroke" />
    </clipPath>
  </defs>
  <sodipodi:namedview
     inkscape:snap-to-guides="true"
     inkscape:snap-center="true"
     inkscape:snap-object-midpoints="true"
     inkscape:snap-bbox-midpoints="true"
     inkscape:guide-bbox="true"
     showguides="true"
     inkscape:bbox-nodes="true"
     inkscape:snap-bbox="true"
     inkscape:document-rotation="0"
     inkscape:current-layer="layer1"
     inkscape:window-maximized="1"
     inkscape:window-y="-8"
     inkscape:window-x="-8"
     inkscape:cy="388.62582"
     inkscape:cx="228.8002"
     inkscape:zoom="0.65186405"
     showgrid="false"
     id="namedview6"
     inkscape:window-height="1027"
     inkscape:window-width="1920"
     inkscape:pageshadow="2"
     inkscape:pageopacity="0"
     guidetolerance="10"
     gridtolerance="10"
     objecttolerance="10"
     borderopacity="1"
     bordercolor="#666666"
     pagecolor="#ffffff" />
  <g
     inkscape:label="Layer 1"
     id="layer1"
     inkscape:groupmode="layer">
    <g
       id="g882">
      <path
         fill="currentColor"
         d="m 206.55005,44.260724 c 89.59754,0 162.28932,25.563334 162.28932,56.906386 v 4.21491 c 0,31.34397 -72.69178,56.9073 -162.28932,56.9073 -89.59754,0 -162.289326,-25.56333 -162.289326,-56.90638 v -4.21491 c 0,-31.343972 72.691786,-56.907306 162.289326,-56.907306 M 368.83937,168.76061 v 24.34247 c 0,31.34305 -72.69178,56.90639 -162.28932,56.90639 -89.59754,0 -162.289326,-25.56334 -162.289326,-56.90639 v -24.34247 c 34.867307,25.78556 98.683896,37.78944 162.289326,37.78944 63.60542,0 127.42201,-12.00388 162.28932,-37.78944 m 0,88.52144 v 24.74359 c 0,31.34306 -72.69178,56.90639 -162.28932,56.90639 -89.59754,0 -162.289326,-25.56426 -162.289326,-56.9073 v -24.7436 c 34.867307,25.78649 98.683896,37.79036 162.289326,37.79036 63.60542,0 127.42201,-12.00387 162.28932,-37.78944 m 0,88.52145 v 25.14379 c 0,31.34304 -72.69178,56.90637 -162.28932,56.90637 -89.59754,0 -162.289326,-25.56333 -162.289326,-56.90637 V 345.8035 c 34.867307,25.78557 98.683896,37.78944 162.289326,37.78944 63.60542,0 127.42201,-12.00387 162.28932,-37.78944 M 206.55005,0 C 126.37543,0 0,21.448009 0,101.16711 v 269.77925 c 0,79.73662 126.35514,101.16803 206.55005,101.16803 80.17461,0 206.55004,-21.44801 206.55004,-101.1671 V 101.16711 C 413.10009,21.431411 286.74494,0 206.55005,0 Z"
         id="path2"
         style="stroke-width:1" />
      <g
         id="g873">
        <g
           transform="matrix(1.0907117,0,0,1.0907117,-580.02537,-395.1018)"
           style="fill:#ffffff;fill-opacity:1;stroke-width:0.916833"
           id="g963">
          <path
             sodipodi:nodetypes="sccccccccccss"
             transform="matrix(0.91683256,0,0,0.91683256,531.78614,362.24219)"
             d="m 314.25391,227.66406 c -6.82852,-0.0165 -13.80036,0.60653 -20.4043,0.1543 -34.44955,0.10089 -68.9104,-0.20185 -103.35352,0.1543 -17.65911,1.2415 -29.01324,19.19242 -26.6875,35.87109 0.0961,41.01528 -0.19179,82.04149 0.14649,123.05078 1.79185,16.33857 17.07296,25.13063 27.01562,36.53516 29.64796,29.53662 59.12734,59.2491 88.77987,88.78025 l 90.07618,-0.0989 c 25.8234,-25.82311 51.71434,-51.58252 77.48366,-77.45716 0.30035,-91.45553 0,0 0.30035,-91.45553 -36.23998,-36.25281 -72.38872,-72.60182 -108.8256,-108.64755 -7.21128,-5.78602 -15.75173,-6.86544 -24.53125,-6.88672 z"
             style="fill:#ffffff;fill-opacity:1;fill-rule:nonzero;stroke:none;stroke-width:1;stroke-opacity:1"
             id="path950" />
        </g>
        <g
           style="stroke-width:1.15169"
           transform="matrix(0.86829132,0,0,0.86829132,-247.77676,145.88673)"
           id="g948">
          <path
             transform="matrix(1.1516872,0,0,1.1516872,285.36132,-168.01588)"
             d="m 315.87109,260.00195 c -5.43603,-0.0132 -10.98688,0.48502 -16.24414,0.125 -27.42452,0.0803 -54.85794,-0.16243 -82.27734,0.1211 -14.05803,0.98833 -23.09562,15.27912 -21.24414,28.55664 0.0765,32.65135 -0.15406,65.31045 0.11523,97.95703 1.42646,13.00677 13.59073,20.00705 21.50586,29.08594 30.55021,30.43547 60.87788,61.10659 91.56836,91.39453 10.63938,9.24169 27.13549,5.52803 35.21485,-5.16992 32.87458,-32.98906 65.98384,-65.75548 98.71093,-98.88477 7.63019,-9.01417 6.89651,-23.48195 -1.625,-31.66992 -35.42524,-35.31634 -70.63703,-70.8547 -106.19531,-106.03125 -5.74074,-4.60613 -12.54011,-5.46744 -19.5293,-5.48438 z M 274.58203,304.25 a 34.181859,34.181859 0 0 1 0.10742,0 34.181859,34.181859 0 0 1 34.18164,34.18359 34.181859,34.181859 0 0 1 -34.18164,34.18164 34.181859,34.181859 0 0 1 -34.18359,-34.18164 34.181859,34.181859 0 0 1 34.07617,-34.18359 z"
             style="fill:#000000;fill-opacity:1;fill-rule:nonzero;stroke:none;stroke-width:1;stroke-opacity:1"
             id="path2-2" />
        </g>
      </g>
      <rect
         style="fill:none;fill-opacity:1;fill-rule:evenodd;stroke:none;stroke-width:0.1;stroke-linecap:square;stroke-linejoin:round;stroke-miterlimit:4;stroke-dasharray:none;stroke-opacity:1;paint-order:markers fill stroke"
         id="rect1026"
         width="448"
         height="512"
         x="0"
         y="0" />
    </g>
  </g>
</svg>
