<?xml version="1.0" encoding="UTF-8" standalone="no"?>
<svg
   xmlns:dc="http://purl.org/dc/elements/1.1/"
   xmlns:cc="http://creativecommons.org/ns#"
   xmlns:rdf="http://www.w3.org/1999/02/22-rdf-syntax-ns#"
   xmlns:svg="http://www.w3.org/2000/svg"
   xmlns="http://www.w3.org/2000/svg"
   xmlns:sodipodi="http://sodipodi.sourceforge.net/DTD/sodipodi-0.dtd"
   xmlns:inkscape="http://www.inkscape.org/namespaces/inkscape"
   aria-hidden="true"
   data-prefix="far"
   data-icon="database"
   class="svg-inline--fa fa-database fa-w-14"
   role="img"
   viewBox="0 0 448 512"
   version="1.1"
   id="svg4"
   sodipodi:docname="database_with_tag.svg"
   inkscape:version="1.0 (4035a4fb49, 2020-05-01)">
  <metadata
     id="metadata10">
    <rdf:RDF>
      <cc:Work
         rdf:about="">
        <dc:format>image/svg+xml</dc:format>
        <dc:type
           rdf:resource="http://purl.org/dc/dcmitype/StillImage" />
        <dc:title />
      </cc:Work>
    </rdf:RDF>
  </metadata>
  <defs
     id="defs8">
    <clipPath
       clipPathUnits="userSpaceOnUse"
       id="clipPath1030">
      <rect
         style="fill:#3bffff;fill-opacity:1;fill-rule:evenodd;stroke:#4a03f4;stroke-width:0.1;stroke-linecap:square;stroke-linejoin:round;stroke-miterlimit:4;stroke-dasharray:none;stroke-opacity:1;paint-order:markers fill stroke"
         id="rect1032"
         width="447.95001"
         height="511.95001"
         x="0.025001526"
         y="0.024990082" />
    </clipPath>
  </defs>
  <sodipodi:namedview
     pagecolor="#ffffff"
     bordercolor="#666666"
     borderopacity="1"
     objecttolerance="10"
     gridtolerance="10"
     guidetolerance="10"
     inkscape:pageopacity="0"
     inkscape:pageshadow="2"
     inkscape:window-width="1920"
     inkscape:window-height="1027"
     id="namedview6"
     showgrid="false"
     inkscape:zoom="0.92187498"
     inkscape:cx="67.724971"
     inkscape:cy="236.7002"
     inkscape:window-x="-8"
     inkscape:window-y="-8"
     inkscape:window-maximized="1"
     inkscape:current-layer="layer1"
     inkscape:document-rotation="0"
     inkscape:snap-bbox="true"
     inkscape:bbox-nodes="true"
     showguides="true"
     inkscape:guide-bbox="true"
     inkscape:snap-bbox-midpoints="true"
     inkscape:snap-object-midpoints="true"
     inkscape:snap-center="true" />
  <g
     inkscape:groupmode="layer"
     id="layer1"
     inkscape:label="Layer 1">
    <g
       id="g1044">
      <g
         clip-path="url(#clipPath1030)"
         id="g1024">
        <path
           fill="currentColor"
           d="m 206.55005,44.260724 c 89.59754,0 162.28932,25.563334 162.28932,56.906386 v 4.21491 c 0,31.34397 -72.69178,56.9073 -162.28932,56.9073 -89.59754,0 -162.289326,-25.56333 -162.289326,-56.90638 v -4.21491 c 0,-31.343972 72.691786,-56.907306 162.289326,-56.907306 M 368.83937,168.76061 v 24.34247 c 0,31.34305 -72.69178,56.90639 -162.28932,56.90639 -89.59754,0 -162.289326,-25.56334 -162.289326,-56.90639 v -24.34247 c 34.867307,25.78556 98.683896,37.78944 162.289326,37.78944 63.60542,0 127.42201,-12.00388 162.28932,-37.78944 m 0,88.52144 v 24.74359 c 0,31.34306 -72.69178,56.90639 -162.28932,56.90639 -89.59754,0 -162.289326,-25.56426 -162.289326,-56.9073 v -24.7436 c 34.867307,25.78649 98.683896,37.79036 162.289326,37.79036 63.60542,0 127.42201,-12.00387 162.28932,-37.78944 m 0,88.52145 v 25.14379 c 0,31.34304 -72.69178,56.90637 -162.28932,56.90637 -89.59754,0 -162.289326,-25.56333 -162.289326,-56.90637 V 345.8035 c 34.867307,25.78557 98.683896,37.78944 162.289326,37.78944 63.60542,0 127.42201,-12.00387 162.28932,-37.78944 M 206.55005,0 C 126.37543,0 0,21.448009 0,101.16711 v 269.77925 c 0,79.73662 126.35514,101.16803 206.55005,101.16803 80.17461,0 206.55004,-21.44801 206.55004,-101.1671 V 101.16711 C 413.10009,21.431411 286.74494,0 206.55005,0 Z"
           id="path2"
           style="stroke-width:1" />
        <g
           id="g963"
           style="fill:#ffffff;fill-opacity:1;stroke-width:0.916833"
           transform="matrix(1.0907117,0,0,1.0907117,-580.02537,-395.1018)">
          <path
             id="path950"
             style="fill:#ffffff;fill-opacity:1;fill-rule:nonzero;stroke:none;stroke-width:0.916833;stroke-opacity:1"
             d="m 964.70105,699.40208 c -40.7988,-40.67338 -81.35288,-81.60391 -122.3049,-122.1163 -11.75384,-9.43078 -27.36039,-5.22447 -41.19973,-6.17218 -31.58447,0.0925 -63.1783,-0.18582 -94.75687,0.14071 -16.19045,1.13825 -26.59993,17.59751 -24.46761,32.88906 0.0881,37.60414 -0.17676,75.21701 0.13338,112.81566 1.64283,14.97973 15.65261,23.0409 24.76837,33.49694 35.18428,35.05215 70.1108,70.37541 105.45663,105.25764 12.25324,10.64354 31.25229,6.36587 40.55718,-5.95483 37.86124,-37.99307 75.99308,-75.72886 113.68445,-113.88344 8.78759,-10.3815 7.94321,-27.04328 -1.8709,-36.47326 z m -12.84753,25.69563 c -39.14839,38.97474 -77.96687,78.31431 -117.32164,117.06082 -9.00775,5.33698 -14.87986,-5.5005 -20.75802,-10.49803 -37.32712,-37.49002 -74.99574,-74.67001 -112.10952,-112.35368 -3.05185,-8.60212 -0.85788,-18.25222 -1.52291,-27.31916 0.12305,-31.81302 -0.24625,-63.65087 0.18491,-95.44835 2.60068,-10.14068 14.40968,-6.63569 22.10105,-7.25623 34.82468,0.11616 69.67199,-0.23242 104.4825,0.17444 8.23793,3.92601 13.50998,12.29821 20.39005,18.23852 35.19272,35.36729 70.75216,70.40307 105.71577,105.97744 2.36286,3.47 1.86176,8.50393 -1.16219,11.42423 z" />
          <path
             style="fill:#ffffff;fill-opacity:1;fill-rule:evenodd;stroke:none;stroke-width:0.0916833;stroke-linecap:square;stroke-linejoin:round;stroke-miterlimit:4;stroke-dasharray:none;stroke-opacity:1;paint-order:markers fill stroke"
             d="m 763.09572,784.13873 -64.03299,-63.97477 -0.44603,-62.84873 c -0.37566,-52.93174 -0.0843,-63.34371 1.84659,-65.98562 2.21147,-3.02584 4.54393,-3.15273 65.88418,-3.58452 l 63.59155,-0.44763 64.52225,64.39632 c 56.51455,56.40424 64.52374,64.99008 64.53425,69.18049 0.011,4.21031 -7.42835,12.12664 -62.01758,65.9978 -47.86282,47.23324 -62.92252,61.21682 -65.93939,61.22754 -3.04895,0.011 -18.00885,-14.07228 -67.94283,-63.96088 z"
             id="path952" />
        </g>
        <g
           id="g948"
           transform="matrix(0.86829132,0,0,0.86829132,-247.77676,145.88673)"
           style="stroke-width:1.15169">
          <path
             d="m 793.94202,259.85659 c -40.7988,-40.67338 -81.35288,-81.60391 -122.3049,-122.1163 -11.75384,-9.43078 -27.36039,-5.22447 -41.19973,-6.17218 -31.58447,0.0925 -63.1783,-0.18582 -94.75687,0.14071 -16.19045,1.13825 -26.59993,17.59751 -24.46761,32.88906 0.0881,37.60414 -0.17676,75.21701 0.13338,112.81566 1.64283,14.97973 15.65261,23.0409 24.76837,33.49694 35.18428,35.05215 70.1108,70.37541 105.45663,105.25764 12.25324,10.64354 31.25229,6.36587 40.55718,-5.95483 37.86124,-37.99307 75.99308,-75.72886 113.68445,-113.88344 8.78759,-10.3815 7.94321,-27.04328 -1.8709,-36.47326 z m -12.84753,25.69563 c -39.14839,38.97474 -77.96687,78.31431 -117.32164,117.06082 -9.00775,5.33698 -14.87986,-5.5005 -20.75802,-10.49803 -37.32712,-37.49002 -74.99574,-74.67001 -112.10952,-112.35368 -3.05185,-8.60212 -0.85788,-18.25222 -1.52291,-27.31916 0.12305,-31.81302 -0.24625,-63.65087 0.18491,-95.44835 2.60068,-10.14068 14.40968,-6.63569 22.10105,-7.25623 34.82468,0.11616 69.67199,-0.23242 104.4825,0.17444 8.23793,3.92601 13.50998,12.29821 20.39005,18.23852 35.19272,35.36729 70.75216,70.40307 105.71577,105.97744 2.36286,3.47 1.86176,8.50393 -1.16219,11.42423 z"
             style="fill:#000000;fill-opacity:1;fill-rule:nonzero;stroke:none;stroke-width:1.15169;stroke-opacity:1"
             id="path2-2" />
          <path
             id="path928"
             d="m 592.33669,344.59324 -64.03299,-63.97477 -0.44603,-62.84873 c -0.37566,-52.93174 -0.0843,-63.34371 1.84659,-65.98562 2.21147,-3.02584 4.54393,-3.15273 65.88418,-3.58452 l 63.59155,-0.44763 64.52225,64.39632 c 56.51455,56.40424 64.52374,64.99008 64.53425,69.18049 0.011,4.21031 -7.42835,12.12664 -62.01758,65.9978 -47.86282,47.23324 -62.92252,61.21682 -65.93939,61.22754 -3.04895,0.011 -18.00885,-14.07228 -67.94283,-63.96088 z"
             style="fill:#000000;fill-opacity:1;fill-rule:evenodd;stroke:none;stroke-width:0.115169;stroke-linecap:square;stroke-linejoin:round;stroke-miterlimit:4;stroke-dasharray:none;stroke-opacity:1;paint-order:markers fill stroke" />
          <circle
             r="25"
             cy="211.31705"
             cx="590.23041"
             id="path875"
             style="fill:#ffffff;fill-opacity:1;fill-rule:nonzero;stroke:#0203f4;stroke-width:0.115169;stroke-linecap:square;stroke-linejoin:round;stroke-miterlimit:4;stroke-dasharray:none;stroke-opacity:1;paint-order:markers fill stroke" />
        </g>
      </g>
      <rect
         y="0"
         x="0"
         height="512"
         width="448"
         id="rect1026"
         style="fill:none;fill-opacity:1;fill-rule:evenodd;stroke:none;stroke-width:0.1;stroke-linecap:square;stroke-linejoin:round;stroke-miterlimit:4;stroke-dasharray:none;stroke-opacity:1;paint-order:markers fill stroke" />
    </g>
  </g>
</svg>
