<?xml version="1.0" encoding="UTF-8" standalone="no"?>
<svg
   xmlns:dc="http://purl.org/dc/elements/1.1/"
   xmlns:cc="http://creativecommons.org/ns#"
   xmlns:rdf="http://www.w3.org/1999/02/22-rdf-syntax-ns#"
   xmlns:svg="http://www.w3.org/2000/svg"
   xmlns="http://www.w3.org/2000/svg"
   xmlns:sodipodi="http://sodipodi.sourceforge.net/DTD/sodipodi-0.dtd"
   xmlns:inkscape="http://www.inkscape.org/namespaces/inkscape"
   aria-hidden="true"
   focusable="false"
   data-prefix="far"
   data-icon="tasks"
   class="svg-inline--fa fa-tasks fa-w-16"
   role="img"
   viewBox="0 0 512 512"
   version="1.1"
   id="svg4"
   sodipodi:docname="TasksAll.svg"
   inkscape:version="0.92.5 (2060ec1f9f, 2020-04-08)">
  <metadata
     id="metadata10">
    <rdf:RDF>
      <cc:Work
         rdf:about="">
        <dc:format>image/svg+xml</dc:format>
        <dc:type
           rdf:resource="http://purl.org/dc/dcmitype/StillImage" />
        <dc:title></dc:title>
      </cc:Work>
    </rdf:RDF>
  </metadata>
  <defs
     id="defs8" />
  <sodipodi:namedview
     pagecolor="#ffffff"
     bordercolor="#666666"
     borderopacity="1"
     objecttolerance="10"
     gridtolerance="10"
     guidetolerance="10"
     inkscape:pageopacity="0"
     inkscape:pageshadow="2"
     inkscape:window-width="1920"
     inkscape:window-height="1027"
     id="namedview6"
     showgrid="false"
     inkscape:zoom="1.3"
     inkscape:cx="137.10593"
     inkscape:cy="256"
     inkscape:window-x="-8"
     inkscape:window-y="-8"
     inkscape:window-maximized="1"
     inkscape:current-layer="svg4" />
  <g
     id="g848">
    <path
       id="path819-8"
       style="fill:currentColor"
       d="m 161.09031,366.8339 -46,45.9 -46,45.9 c -2.35,2.35 -5.425,3.525 -8.5,3.525 -3.075,0 -6.15,-1.175 -8.5,-3.525 l -6.2,-6.2 -6.2,-6.2 -18.6,-18.75 -18.6,-18.75 c -2.35,-2.35 -3.525,-5.425 -3.525,-8.5 0,-3.075 1.175,-6.15 3.525,-8.5 l 6.2,-6.2 6.2,-6.2 c 2.35,-2.35 5.425,-3.525 8.5,-3.525 3.075,0 6.15,1.175 8.5,3.525 l 14.4,14.6 14.4,14.6 35.55,-35.55 35.55,-35.55 c 2.35,-2.35 5.425,-3.525 8.5,-3.525 3.075,0 6.15,1.175 8.5,3.525 l 6.2,6.2 6.2,6.2 c 2.3,2.4 3.45,5.5 3.4375,8.575 -0.0125,3.075 -1.1875,6.125 -3.5375,8.425 z M 162.1,224.7 l -92,92 c -4.7,4.7 -12.3,4.7 -17,0 L 40.7,304.3 3.5,266.6 c -4.7,-4.7 -4.7,-12.3 0,-17 l 12.4,-12.4 c 4.7,-4.7 12.3,-4.7 17,0 l 28.8,29.2 71.1,-71.1 c 4.7,-4.7 12.3,-4.7 17,0 l 12.4,12.4 c 4.6,4.7 4.6,12.3 -0.1,17 z m 0,-159.9 -46,45.9 -46,45.9 c -2.35,2.35 -5.425,3.525 -8.5,3.525 -3.075,0 -6.15,-1.175 -8.5,-3.525 L 46.9,150.4 40.7,144.2 22.1,125.45 3.5,106.7 c -2.35,-2.35 -3.525,-5.425 -3.525,-8.5 0,-3.075 1.175,-6.15 3.525,-8.5 l 6.2,-6.2 6.2,-6.2 c 2.35,-2.35 5.425,-3.525 8.5,-3.525 3.075,0 6.15,1.175 8.5,3.525 L 47.3,91.9 61.7,106.5 97.25,70.95 132.8,35.4 c 2.35,-2.35 5.425,-3.525 8.5,-3.525 3.075,0 6.15,1.175 8.5,3.525 l 6.2,6.2 6.2,6.2 c 2.3,2.4 3.45,5.5 3.4375,8.575 C 165.625,59.45 164.45,62.5 162.1,64.8 Z M 512,448 v -32 c 0,-6.6 -5.4,-12 -12,-12 H 204 c -6.6,0 -12,5.4 -12,12 v 32 c 0,6.6 5.4,12 12,12 h 296 c 6.6,0 12,-5.4 12,-12 z m 0,-160 v -32 c 0,-6.6 -5.4,-12 -12,-12 H 204 c -6.6,0 -12,5.4 -12,12 v 32 c 0,6.6 5.4,12 12,12 h 296 c 6.6,0 12,-5.4 12,-12 z m 0,-160 V 96 c 0,-6.6 -5.4,-12 -12,-12 H 204 c -6.6,0 -12,5.5 -12,12.2 V 128 c 0,6.6 5.4,12 12,12 h 296 c 6.6,0 12,-5.4 12,-12 z" />
  </g>
</svg>
